<?xml version="1.0" encoding="UTF-8"?>
<svg width="98px" height="16px" viewBox="0 0 98 16" version="1.1" xmlns="http://www.w3.org/2000/svg" xmlns:xlink="http://www.w3.org/1999/xlink">
    <title>Logo</title>
    <defs>
        <linearGradient x1="2.93194023%" y1="51.1244569%" x2="99.5239889%" y2="48.7859811%" id="linearGradient-1">
            <stop stop-color="#3153FA" offset="0%"></stop>
            <stop stop-color="#11B0EC" offset="100%"></stop>
        </linearGradient>
    </defs>
    <g id="Symbols" stroke="none" stroke-width="1" fill="none" fill-rule="evenodd">
        <g id="Logo/Basic-Copy" fill="url(#linearGradient-1)" fill-rule="nonzero">
            <path d="M90.8488188,0.177159588 C93.038034,0.177159588 94.7474571,0.663069225 96.3109325,1.85730577 L96.3109325,1.85730577 L94.2678835,4.38735685 C93.2672243,3.65871088 92.1206174,3.41575606 90.8488188,3.41575606 C89.8481596,3.41575606 88.7555183,3.71944958 88.7555183,4.46819613 C88.7555183,5.43979692 89.8481596,5.5815934 91.2866618,5.72317138 C94.1846409,6.02686491 97.2075931,7.16014426 97.2075931,10.4190598 C97.2075931,13.6371187 94.0804238,15.0135714 90.8073067,15.0338904 C88.180467,15.053991 86.3041217,14.6087195 84.2818287,12.544259 L84.2818287,12.544259 L86.5542865,10.0142079 C87.9927888,11.3703415 89.5979948,11.6130779 90.8280628,11.6130779 C92.1831039,11.6130779 93.2342331,11.1477058 93.2342331,10.3583211 C93.2342331,9.6497757 92.2873211,9.20450419 90.6821151,9.0629262 C87.4924592,8.77955174 84.7404278,7.99016707 84.7404278,4.46819613 C84.7404278,1.47255448 87.76338,0.177159588 90.8488188,0.177159588 Z M44.7701747,0.0105039361 C48.9572944,0.0105039361 52.3564455,3.35551297 52.3564455,7.47541204 C52.3564455,11.5955476 48.9572944,14.9403201 44.7701747,14.9403201 C40.5832953,14.9403201 37.1839039,11.5955476 37.1839039,7.47541204 C37.1839039,3.35551297 40.5832953,0.0105039361 44.7701747,0.0105039361 Z M75.2317617,0.460534048 L75.2317617,5.11600282 C76.4825857,3.61807275 78.1196905,1.95846412 79.3497585,0.460534048 L79.3497585,0.460534048 L84.036689,0.460534048 L84.036689,0.703488867 L77.8339127,7.40309908 C79.9427256,9.53594525 82.5127593,12.1592892 84.5370187,14.3860838 L84.5370187,14.3860838 L84.5370187,14.6290386 L79.6833844,14.6290386 L75.0906207,9.71553955 L75.0906207,14.6290386 L71.1037146,14.6290386 L71.1037146,0.460534048 L75.2317617,0.460534048 Z M57.9487599,0.460534048 L64.2891815,8.38212835 C64.1957392,6.86085493 64.1859031,6.31767087 64.1700005,5.82877294 L64.1639899,5.65697057 L64.1639899,0.460534048 L68.1434675,0.460534048 L68.1434675,14.6290386 L64.6409417,14.6290386 L58.2994276,6.91369369 C58.2994276,6.91369369 58.3519384,7.72705208 58.3853544,8.56707675 L58.3975326,8.90264407 C58.4065496,9.18036075 58.4123841,9.44938565 58.4123841,9.68058202 L58.4123841,9.68058202 L58.4123841,14.6290386 L54.4464526,14.6290386 L54.4464526,0.460534048 L57.9487599,0.460534048 Z M23.4166215,0.460534048 L27.1409091,5.25758081 L30.8651967,0.460534048 L35.0347559,0.460534048 L35.0347559,14.6290386 L31.0675134,14.6290386 L31.0675134,6.18876196 L27.4446026,10.4797985 L26.7360572,10.4797985 L23.1939857,6.20886254 L23.1939857,14.6290386 L19.2269618,14.6290386 L19.2269618,0.460534048 L23.4166215,0.460534048 Z M13.1895782,5.76730526 L13.1895782,9.0983207 L6.85155993,9.0983207 L6.85155993,11.2669983 L16.6973477,11.2669983 L16.6973477,14.5977953 L3.52054449,14.5977953 L3.52054449,9.0983207 L0.0127750529,9.0983207 L0.0127750529,5.76730526 L13.1895782,5.76730526 Z M44.7701747,3.53073223 C42.541562,3.53073223 40.732286,5.28245193 40.732286,7.47541204 C40.732286,9.66860862 42.541562,11.4203283 44.7701747,11.4203283 C46.9990277,11.4203283 48.8083037,9.66860862 48.8083037,7.47541204 C48.8083037,5.28245193 46.9990277,3.53073223 44.7701747,3.53073223 Z M16.041894,0.44043347 L16.041894,3.77123042 L2.86509084,3.77123042 L2.86509084,0.44043347 L16.041894,0.44043347 Z" id="Logo"></path>
        </g>
    </g>
</svg>