<svg width="150" height="58" viewBox="0 0 150 58" fill="none" xmlns="http://www.w3.org/2000/svg">
<path d="M40.5866 0C47.5644 0 53.9792 2.49353 58.9462 6.636H22.227C27.1939 2.49353 33.6087 0 40.5866 0ZM14.4448 16.8514H66.7284C65.6425 14.4383 64.2148 12.2062 62.5457 10.2154H18.6476C16.9584 12.2062 15.5508 14.4383 14.4649 16.8514H14.4448ZM11.9513 27.0467H69.242C69.1214 24.7543 68.7192 22.5222 68.0757 20.4107H13.0975C12.454 22.5222 12.0518 24.7543 11.9312 27.0467H11.9513ZM13.2181 37.242H67.9551C68.6186 35.1306 69.0409 32.8984 69.2018 30.606H11.9714C12.1322 32.8984 12.5545 35.1306 13.2181 37.242Z" fill="white"/>
<path d="M14.6055 40.8013H66.5472C65.401 43.2144 63.933 45.4465 62.2037 47.4373H18.949C17.2196 45.4465 15.7316 43.2144 14.6055 40.8013ZM40.5864 57.2706C47.3632 57.2706 53.5769 54.9178 58.4835 51.0167H22.6893C27.5959 54.9379 33.8096 57.2706 40.5864 57.2706Z" fill="white"/>
<path d="M11.9512 30.5859C7.28587 27.8913 2.76132 23.7689 0.710199 18.6813C-0.516455 15.6248 -0.335473 11.9046 2.701 9.87355C5.25485 8.14417 8.41198 7.90286 11.368 7.92297C20.2562 8.22461 28.8026 11.241 36.8462 14.7802C46.5589 19.1438 55.6683 24.9554 63.4304 32.2751C66.7886 35.4523 69.9055 38.891 72.6002 42.6312C63.3098 33.6224 52.7726 26.3027 41.2099 20.6721C33.6087 16.9721 25.6656 13.7747 17.4007 12.0252C13.4996 11.241 2.94231 9.45126 2.52002 15.2226C2.23849 20.652 8.00979 27.2277 11.9512 30.6261V30.5859Z" fill="white"/>
<path d="M95.9267 20.4108H100.512V43.1541H92.1261L83.7808 22.2206H83.7004V43.1541H79.1558V20.4108H86.938L95.8463 41.3443H95.9267V20.4108Z" fill="white"/>
<path d="M122.109 20.4108H126.955L118.911 43.1541H111.551L103.508 20.4108H108.314L115.191 41.4248L122.109 20.4108Z" fill="white"/>
<path d="M129.891 43.1541V20.4108H138.84C140.951 20.4108 142.741 20.632 144.229 21.0543C145.717 21.4765 146.863 22.1804 147.647 23.1255C148.432 24.0907 148.834 25.3978 148.834 27.0669C148.834 28.7359 148.633 29.3995 148.21 30.3245C147.788 31.2496 147.165 31.9735 146.34 32.4963C145.516 33.0192 144.51 33.2806 143.284 33.2806C144.148 33.2806 144.832 33.4414 145.315 33.7431C145.797 34.0447 146.179 34.467 146.421 34.9496C146.662 35.4524 146.823 35.9752 146.924 36.5382C147.024 37.1013 147.084 37.6644 147.165 38.1872C147.245 38.7301 147.366 39.1926 147.527 39.5747C147.708 39.9568 147.969 40.2182 148.351 40.3389C148.733 40.4595 149.276 40.3992 150 40.1579V42.5509C149.457 42.9732 148.794 43.2748 148.05 43.4156C147.306 43.5563 146.562 43.5161 145.838 43.2748C145.114 43.0335 144.51 42.5509 144.028 41.847C143.545 41.1432 143.284 40.1378 143.284 38.8307C143.284 37.5236 143.244 37.1013 143.163 36.4377C143.083 35.7942 142.882 35.2714 142.58 34.8893C142.278 34.5072 141.796 34.2056 141.152 34.0045C140.509 33.8034 139.624 33.6828 138.538 33.6425C137.432 33.6023 136.024 33.6224 134.295 33.7029V43.1139H129.891V43.1541ZM134.295 30.7468H138.659C140.107 30.7468 141.273 30.6865 142.178 30.5659C143.083 30.4452 143.766 30.1436 144.209 29.6609C144.651 29.1783 144.872 28.4142 144.872 27.3886C144.872 26.3631 144.591 25.3978 144.048 24.875C143.505 24.3723 142.701 24.0505 141.655 23.9299C140.609 23.8092 139.302 23.7489 137.774 23.7489H134.275V30.7468H134.295Z" fill="white"/>
</svg>
