<svg width="110" height="42" viewBox="0 0 110 42" fill="none" xmlns="http://www.w3.org/2000/svg">
<path d="M29.7635 0.000732422C34.8806 0.000732422 39.5848 1.82932 43.2272 4.86713H16.2998C19.9422 1.82932 24.6464 0.000732422 29.7635 0.000732422ZM10.5928 12.3584H48.9342C48.1378 10.5888 47.0908 8.95195 45.8668 7.49203H13.6749C12.4362 8.95195 11.4039 10.5888 10.6076 12.3584H10.5928ZM8.76426 19.835H50.7775C50.689 18.1539 50.3941 16.517 49.9222 14.9686H9.60482C9.13293 16.517 8.83799 18.1539 8.74951 19.835H8.76426ZM9.6933 27.3115H49.8337C50.3203 25.7631 50.63 24.1263 50.748 22.4451H8.77901C8.89698 24.1263 9.20666 25.7631 9.6933 27.3115Z" fill="url(#paint0_linear_6208_872)"/>
<path d="M10.7109 29.9216H48.8016C47.961 31.6912 46.8845 33.3281 45.6163 34.788H13.8962C12.628 33.3281 11.5368 31.6912 10.7109 29.9216ZM29.7636 41.9991C34.7332 41.9991 39.29 40.2738 42.8881 37.4129H16.6391C20.2373 40.2885 24.794 41.9991 29.7636 41.9991Z" fill="url(#paint1_linear_6208_872)"/>
<path d="M8.76419 22.4304C5.34297 20.4543 2.02497 17.4312 0.520813 13.7003C-0.378734 11.4588 -0.246013 8.7307 1.98073 7.24129C3.85356 5.97308 6.16878 5.79612 8.33654 5.81086C14.8546 6.03206 21.1219 8.24406 27.0206 10.8395C34.1432 14.0395 40.8234 18.3013 46.5156 23.6691C48.9783 25.999 51.2641 28.5207 53.2401 31.2636C46.4272 24.6571 38.6999 19.2893 30.2206 15.1602C24.6463 12.4469 18.8214 10.1021 12.7605 8.81918C9.89969 8.24406 2.15769 6.93161 1.84801 11.1639C1.64156 15.1455 5.87385 19.9677 8.76419 22.4598V22.4304Z" fill="#1D1D1B"/>
<path d="M70.3461 14.9685H73.7083V31.647H67.559L61.4391 16.2957H61.3801V31.647H58.0474V14.9685H63.7543L70.2871 30.3198H70.3461V14.9685Z" fill="#ED7409"/>
<path d="M89.5464 14.9685H93.1004L87.2017 31.647H81.8044L75.9058 14.9685H79.4302L84.4736 30.3788L89.5464 14.9685Z" fill="#ED7409"/>
<path d="M95.2529 31.647V14.9685H101.815C103.364 14.9685 104.676 15.1307 105.767 15.4404C106.859 15.7501 107.699 16.2662 108.274 16.9593C108.849 17.6671 109.144 18.6257 109.144 19.8496C109.144 21.0736 108.997 21.5603 108.687 22.2386C108.377 22.917 107.92 23.4478 107.316 23.8312C106.711 24.2147 105.974 24.4064 105.074 24.4064C105.708 24.4064 106.21 24.5243 106.564 24.7455C106.918 24.9667 107.198 25.2764 107.375 25.6303C107.552 25.999 107.67 26.3824 107.743 26.7953C107.817 27.2082 107.861 27.6211 107.92 28.0046C107.979 28.4027 108.068 28.7419 108.186 29.0221C108.318 29.3023 108.51 29.494 108.79 29.5824C109.071 29.6709 109.469 29.6267 110 29.4497V31.2046C109.601 31.5143 109.115 31.7355 108.569 31.8387C108.024 31.9419 107.478 31.9124 106.947 31.7355C106.416 31.5585 105.974 31.2046 105.62 30.6884C105.266 30.1723 105.074 29.435 105.074 28.4764C105.074 27.5179 105.045 27.2082 104.986 26.7216C104.927 26.2497 104.779 25.8663 104.558 25.5861C104.337 25.3059 103.983 25.0847 103.511 24.9372C103.039 24.7898 102.39 24.7013 101.594 24.6718C100.783 24.6423 99.7507 24.6571 98.4824 24.716V31.6175H95.2529V31.647ZM98.4824 22.5483H101.682C102.744 22.5483 103.6 22.504 104.263 22.4156C104.927 22.3271 105.428 22.1059 105.753 21.752C106.077 21.398 106.239 20.8377 106.239 20.0856C106.239 19.3335 106.033 18.6257 105.635 18.2423C105.236 17.8736 104.647 17.6377 103.88 17.5492C103.113 17.4607 102.154 17.4164 101.034 17.4164H98.4677V22.5483H98.4824Z" fill="#ED7409"/>
<defs>
<linearGradient id="paint0_linear_6208_872" x1="29.7635" y1="27.3115" x2="29.7635" y2="0.000732422" gradientUnits="userSpaceOnUse">
<stop offset="0.1" stop-color="#40BAEC"/>
<stop offset="0.2" stop-color="#3FB4E7"/>
<stop offset="0.4" stop-color="#3CA6D8"/>
<stop offset="0.5" stop-color="#388DC0"/>
<stop offset="0.6" stop-color="#326B9F"/>
<stop offset="0.8" stop-color="#2B4075"/>
<stop offset="0.9" stop-color="#282F64"/>
</linearGradient>
<linearGradient id="paint1_linear_6208_872" x1="29.7636" y1="41.9991" x2="29.7636" y2="29.9216" gradientUnits="userSpaceOnUse">
<stop stop-color="#F28F00"/>
<stop offset="0.1" stop-color="#F29100"/>
<stop offset="1" stop-color="#E95A0C"/>
</linearGradient>
</defs>
</svg>
